<svg t="1605267937117" class="icon" viewBox="0 0 1024 1024" version="1.1" xmlns="http://www.w3.org/2000/svg" p-id="3691" width="20" height="20"><path d="M781.5168 917.5552h-173.4144c-16.9472 0-30.72-13.7728-30.72-30.72v-225.4848H453.632v225.4848c0 16.9472-13.7728 30.72-30.72 30.72H249.4976c-28.2112 0-51.2-22.9888-51.2-51.2V555.52h-48.64a50.944 50.944 0 0 1-47.5648-32.3072 50.98496 50.98496 0 0 1 12.4416-56.1664L480.3584 121.856c19.712-18.5856 50.5856-18.5856 70.2976 0L916.48 467.0976c15.36 14.4896 20.224 36.5056 12.4416 56.1664a50.944 50.944 0 0 1-47.5648 32.3072h-48.64v310.8352c0 28.2112-22.9376 51.1488-51.2 51.1488z m-163.1744-40.96h163.1744c5.632 0 10.24-4.608 10.24-10.24V514.56h89.6c6.2464 0 8.7552-4.5056 9.5232-6.4512 0.768-1.9456 2.0992-6.912-2.5088-11.2128l-365.824-345.1904a10.2912 10.2912 0 0 0-14.08 0L142.6432 496.896c-4.5568 4.3008-3.2768 9.2672-2.5088 11.2128 0.768 1.9456 3.2256 6.4512 9.5232 6.4512h89.6v351.7952c0 5.632 4.608 10.24 10.24 10.24H412.672v-225.4848c0-16.9472 13.7728-30.72 30.72-30.72h144.2304c16.9472 0 30.72 13.7728 30.72 30.72v225.4848z" fill="#fff" p-id="3692"></path></svg>