<svg t="1605339540108" class="icon" viewBox="0 0 1024 1024" version="1.1" xmlns="http://www.w3.org/2000/svg" p-id="4057" width="12" height="12"><path d="M256 512a32 32 0 0 1 32-32h448a32 32 0 1 1 0 64h-448A32.64 32.64 0 0 1 256 512z" fill="#2c2c2c" p-id="4058"></path><path d="M480 288a32 32 0 1 1 64 0v448a32 32 0 1 1-64 0z" fill="#2c2c2c" p-id="4059"></path><path d="M512 0a512 512 0 1 0 512 512 512 512 0 0 0-512-512z m0 960a448 448 0 1 1 448-448 448 448 0 0 1-448 448z" fill="#2c2c2c" p-id="4060"></path></svg>