<svg t="1605339842223" class="icon" viewBox="0 0 1024 1024" version="1.1" xmlns="http://www.w3.org/2000/svg" p-id="5900" width="12" height="12"><path d="M876.8 345.6c-12.8 0-25.6 12.8-25.6 25.6 0 0 0 0 0 0l0 518.4c0 6.4-6.4 12.8-12.8 12.8l-704 0c-6.4 0-12.8-6.4-12.8-12.8l0-704c0-6.4 6.4-12.8 12.8-12.8l518.4 0c12.8 0 25.6-12.8 25.6-25.6 0-12.8-12.8-25.6-25.6-25.6L134.4 121.6C96 121.6 64 147.2 64 185.6l0 704C64 928 96 960 134.4 960l704 0c38.4 0 70.4-32 70.4-70.4L908.8 371.2l0 0C902.4 358.4 889.6 345.6 876.8 345.6M953.6 70.4c-12.8-12.8-25.6-12.8-38.4 0l-620.8 620.8c-12.8 12.8-12.8 25.6 0 38.4 6.4 6.4 12.8 6.4 19.2 6.4 6.4 0 12.8 0 19.2-6.4l620.8-620.8C960 102.4 960 83.2 953.6 70.4z" p-id="5901"></path></svg>